<?xml version="1.0" standalone="no"?>
<!DOCTYPE svg PUBLIC "-//W3C//DTD SVG 20010904//EN"
 "http://www.w3.org/TR/2001/REC-SVG-20010904/DTD/svg10.dtd">
<svg version="1.0" xmlns="http://www.w3.org/2000/svg"
 width="512.000000pt" height="512.000000pt" viewBox="0 0 512.000000 512.000000"
 preserveAspectRatio="xMidYMid meet">
<metadata>
Created by potrace 1.14, written by Peter Selinger 2001-2017
</metadata>
<g transform="translate(0.000000,512.000000) scale(0.100000,-0.100000)"
fill="#000000" stroke="none">
<path d="M2677 3104 c-1 -1 -42 -4 -92 -7 -311 -18 -555 -183 -668 -451 -31
-74 -66 -209 -61 -239 1 -9 -1 -17 -4 -17 -4 0 -6 -28 -6 -62 1 -34 -2 -71 -8
-82 -11 -25 -148 -109 -297 -183 -153 -76 -200 -137 -156 -200 8 -12 12 -29 8
-39 -4 -10 -2 -15 4 -11 5 3 10 0 10 -8 0 -11 -4 -12 -14 -3 -7 6 -11 20 -8
32 3 12 2 16 -1 9 -3 -7 -13 -9 -22 -5 -15 5 -15 4 1 -12 9 -10 14 -23 10 -29
-3 -7 -2 -9 2 -4 5 4 16 0 26 -9 16 -14 18 -13 33 8 9 12 16 18 16 12 0 -6 -3
-14 -7 -18 -10 -10 -11 -46 -1 -40 4 3 8 11 8 19 0 8 6 17 13 21 6 4 9 4 5 -1
-4 -4 -1 -14 7 -21 16 -16 29 -19 20 -4 -10 16 12 12 29 -6 9 -9 21 -12 28 -7
23 14 40 12 34 -3 -4 -9 -2 -12 5 -8 6 3 8 16 5 28 -5 19 -4 20 8 4 7 -10 20
-18 28 -18 8 0 20 -6 28 -12 12 -11 12 -10 1 5 -10 13 -11 17 -1 17 10 0 9 4
-1 18 -11 15 -11 15 1 4 8 -7 15 -17 15 -22 0 -6 3 -10 8 -10 4 0 6 3 5 6 -2
3 5 10 15 15 9 6 15 14 12 19 -3 5 -2 11 3 14 4 2 8 -6 8 -19 0 -13 -4 -21 -8
-19 -4 3 -8 1 -8 -4 0 -6 7 -13 16 -16 10 -4 13 -2 8 6 -5 8 -2 9 11 4 15 -5
16 -4 5 9 -7 9 -10 18 -6 22 3 3 6 1 6 -6 0 -8 8 -11 20 -8 16 4 18 2 10 -13
-6 -10 -10 -22 -10 -27 1 -4 8 4 16 20 8 15 12 33 8 39 -5 7 -3 8 5 4 7 -5 10
-15 7 -23 -3 -8 -2 -12 3 -8 5 3 11 2 14 -2 2 -5 2 -3 1 4 -3 12 33 10 45 -3
3 -4 -3 -4 -14 0 -15 5 -17 4 -8 -5 18 -18 37 -1 21 19 -8 9 -8 13 -1 9 16
-10 44 3 36 17 -4 6 1 5 10 -3 9 -7 15 -17 12 -21 -3 -5 0 -12 6 -16 8 -5 9
-3 4 6 -6 10 -4 12 10 6 14 -5 16 -4 6 7 -9 12 -5 13 29 7 22 -4 40 -5 40 -2
0 2 7 -1 15 -8 9 -8 15 -9 15 -2 0 6 9 9 20 7 11 -2 20 1 20 7 0 6 6 6 15 -2
13 -11 14 -10 9 4 -4 11 -12 15 -23 10 -35 -15 -81 -12 -91 5 -6 13 -5 18 5
18 7 0 11 -6 9 -12 -3 -7 7 -11 26 -11 20 0 29 4 26 12 -5 13 23 12 44 -1 7
-4 9 3 6 20 -3 15 -2 24 2 20 4 -3 7 -19 7 -33 1 -23 5 -27 30 -28 17 0 37 3
46 7 9 5 22 3 29 -4 10 -9 11 -9 6 1 -4 6 -2 12 3 12 6 0 11 -5 11 -11 0 -5 5
-7 11 -4 6 5 4 12 -8 21 -10 7 -13 14 -6 14 6 0 19 -10 27 -22 11 -16 16 -18
16 -7 0 8 -6 21 -12 28 -11 11 -9 11 10 2 12 -7 20 -16 17 -21 -9 -14 16 -23
28 -11 9 9 7 11 -8 5 -17 -6 -18 -5 -7 7 11 12 15 11 28 -5 8 -11 14 -14 14
-7 0 7 5 9 12 5 7 -4 8 -3 4 5 -4 6 -12 8 -18 5 -7 -4 -8 -2 -4 4 5 9 13 9 27
2 11 -6 17 -15 14 -20 -3 -5 -1 -11 4 -15 6 -3 8 4 6 15 -2 11 0 18 6 15 5 -4
9 0 9 7 0 9 3 10 8 2 4 -6 19 -10 35 -8 15 1 27 -2 27 -7 0 -6 -4 -7 -10 -4
-5 3 -10 1 -10 -4 0 -6 7 -11 15 -11 8 0 15 6 15 13 0 9 2 9 8 -1 5 -7 21 -15
37 -18 26 -5 27 -3 14 12 -13 16 -12 16 8 4 16 -10 19 -18 12 -26 -8 -9 -5
-11 10 -7 13 3 18 11 14 21 -4 15 -3 15 6 2 8 -11 7 -18 -5 -27 -15 -11 -14
-12 2 -13 11 0 35 -1 55 -2 27 -1 36 -5 32 -16 -4 -10 -8 -11 -13 -2 -9 14
-30 4 -29 -13 0 -9 2 -9 6 0 3 10 7 10 18 0 7 -7 11 -15 8 -19 -2 -4 4 -5 14
-1 16 6 17 5 3 -12 -14 -17 -13 -17 10 -11 14 4 20 4 15 -1 -13 -10 -13 -28
-1 -40 5 -4 6 -3 2 4 -3 6 -2 14 3 17 15 10 6 -25 -10 -35 -10 -8 -7 -8 10 -4
15 5 21 3 17 -3 -3 -6 -2 -13 4 -17 7 -4 7 -12 0 -25 -7 -13 -7 -21 0 -25 6
-4 7 -12 4 -18 -5 -8 -3 -8 7 1 7 6 18 12 23 12 7 0 8 -3 1 -8 -5 -4 -16 -23
-22 -42 l-13 -35 20 25 c16 21 21 23 32 12 11 -11 10 -12 -4 -7 -11 4 -18 2
-18 -4 0 -6 7 -11 15 -11 8 0 15 -5 15 -11 0 -5 -4 -8 -8 -5 -4 2 -8 -4 -8
-14 0 -10 5 -16 11 -14 14 6 17 -34 4 -58 -6 -11 -6 -18 0 -18 5 0 12 6 14 13
4 8 6 7 6 -3 0 -8 -3 -22 -9 -30 -5 -9 -5 -19 2 -27 7 -9 7 -13 -1 -13 -7 0
-9 -5 -5 -11 4 -8 9 -7 15 2 10 16 18 9 24 -20 2 -12 0 -19 -6 -16 -5 4 -6 11
-3 17 4 7 2 8 -4 4 -9 -5 -9 -12 0 -26 7 -10 16 -16 20 -14 4 3 8 -2 8 -11 0
-11 -5 -15 -16 -11 -9 3 -12 2 -9 -5 4 -6 13 -8 21 -5 8 3 21 3 29 0 13 -5 13
-9 3 -22 -10 -12 -10 -14 0 -8 11 6 17 -5 13 -26 0 -5 3 -8 9 -8 5 0 10 -8 11
-17 0 -10 3 -13 5 -6 3 7 1 21 -5 31 -8 16 -7 23 7 33 15 13 16 12 3 -4 -12
-15 -9 -21 10 -19 4 1 5 -13 3 -30 -4 -27 -2 -29 13 -17 14 12 15 11 8 -11 -7
-24 -7 -24 9 -5 8 11 16 16 16 10 0 -5 5 -3 11 5 9 13 10 13 6 0 -2 -8 -9 -14
-14 -13 -5 1 -10 -4 -10 -11 0 -16 37 -9 37 8 1 6 7 0 15 -14 7 -14 17 -25 22
-25 4 0 7 -4 5 -9 -2 -5 4 -6 12 -3 9 4 13 1 10 -6 -3 -8 7 -13 27 -13 17 -1
35 -8 40 -15 5 -9 9 -10 9 -3 0 7 11 11 25 10 14 0 25 -5 25 -10 0 -6 7 -1 16
10 8 10 13 14 10 7 -4 -6 -1 -15 5 -19 8 -5 9 -3 4 6 -6 9 -2 10 16 5 24 -7
24 -7 4 9 -19 15 -19 16 -1 9 15 -5 17 -3 12 8 -4 8 -1 6 8 -5 16 -20 48 -15
42 6 -1 7 -1 10 1 6 2 -4 10 -6 16 -4 7 1 9 1 5 -1 -11 -6 -10 -23 1 -23 9 0
27 39 23 51 -1 4 7 5 18 2 11 -3 18 -9 15 -13 -3 -5 -1 -11 4 -15 6 -3 8 3 6
15 -2 11 0 20 6 20 5 0 9 5 9 11 0 8 -4 8 -13 1 -9 -8 -17 -8 -27 0 -12 8 -12
9 2 4 10 -3 20 -1 23 4 8 13 36 0 29 -14 -3 -6 2 -2 10 8 9 11 16 16 16 10 1
-5 8 3 16 19 14 26 23 31 54 28 9 -1 11 1 5 6 -16 13 -16 33 0 33 9 0 18 7 21
15 4 8 11 12 18 8 6 -4 3 5 -7 20 -21 33 -13 35 15 4 11 -12 16 -15 12 -7 -12
21 -14 41 -4 35 17 -10 61 18 55 34 -12 31 -10 35 17 35 21 -1 26 3 23 18 -2
10 2 22 10 25 8 3 15 9 15 14 0 5 -12 2 -27 -7 -17 -10 -22 -11 -13 -2 8 7 23
28 32 46 15 28 15 32 2 32 -14 0 -14 2 0 16 18 17 21 28 6 19 -17 -11 -11 7 8
21 16 13 16 14 -2 8 -15 -6 -17 -4 -9 12 4 10 8 28 8 39 0 11 4 24 10 28 7 6
6 10 -3 14 -6 2 -9 10 -5 16 4 6 7 29 8 50 1 21 8 43 16 48 9 5 10 9 2 9 -8 0
-12 32 -13 108 -1 59 -3 130 -5 157 -11 171 -16 223 -20 245 -5 23 -8 41 -20
120 -26 177 -125 371 -241 472 -19 17 -61 58 -93 92 -106 109 -208 155 -347
154 -44 -1 -97 2 -119 5 -91 15 -221 26 -228 21z m-422 -1244 c3 -6 -1 -7 -9
-4 -18 7 -21 14 -7 14 6 0 13 -4 16 -10z m100 -20 c-3 -5 -12 -10 -18 -10 -7
0 -6 4 3 10 19 12 23 12 15 0z m60 0 c-3 -5 -12 -10 -18 -10 -7 0 -6 4 3 10
19 12 23 12 15 0z m-510 -10 c3 -6 -1 -7 -9 -4 -18 7 -21 14 -7 14 6 0 13 -4
16 -10z m296 -4 c5 3 9 0 9 -5 0 -6 -3 -11 -7 -12 -45 -6 -60 -4 -60 7 0 10 4
11 14 3 10 -9 14 -7 20 7 4 11 8 13 11 6 2 -7 8 -10 13 -6z m-416 -5 c3 -5 2
-12 -3 -15 -5 -3 -9 1 -9 9 0 17 3 19 12 6z m70 -1 c3 -6 -1 -7 -9 -4 -18 7
-21 14 -7 14 6 0 13 -4 16 -10z m681 -10 c0 -12 -4 -16 -9 -11 -5 5 -6 14 -3
20 10 15 12 14 12 -9z m39 10 c3 -6 -1 -7 -9 -4 -18 7 -21 14 -7 14 6 0 13 -4
16 -10z m-877 -19 c-7 -11 -16 -17 -21 -14 -4 3 0 11 10 19 24 18 25 17 11 -5z
m-67 -5 c-10 -11 -8 -17 6 -25 10 -6 13 -11 7 -11 -21 0 -35 25 -22 38 17 17
23 15 9 -2z m215 2 c3 -4 -1 -5 -10 -4 -8 1 -18 5 -22 8 -3 4 1 5 10 4 8 -1
18 -5 22 -8z m-306 -14 c0 -8 -19 -13 -24 -6 -3 5 1 9 9 9 8 0 15 -2 15 -3z
m11 -21 c-12 -20 -14 -14 -5 12 4 9 9 14 11 11 3 -2 0 -13 -6 -23z m1109 1 c0
-8 -19 -13 -24 -6 -3 5 1 9 9 9 8 0 15 -2 15 -3z m1040 -420 c0 -8 -19 -13
-24 -6 -3 5 1 9 9 9 8 0 15 -2 15 -3z m-865 -24 c-3 -5 -1 -10 6 -10 7 0 10
-3 6 -6 -9 -9 -28 6 -22 17 4 5 8 9 11 9 3 0 2 -4 -1 -10z m820 -29 c3 -5 0
-13 -6 -17 -7 -4 -9 -3 -5 4 3 6 -2 13 -11 15 -16 4 -16 5 -1 6 9 0 19 -3 23
-8z m-88 -83 c2 -17 0 -19 -7 -8 -5 8 -6 18 -4 22 8 12 10 10 11 -14z m-37
-48 c0 -5 -2 -10 -4 -10 -3 0 -8 5 -11 10 -3 6 -1 10 4 10 6 0 11 -4 11 -10z
m-535 -20 c3 -6 -1 -7 -9 -4 -18 7 -21 14 -7 14 6 0 13 -4 16 -10z m503 -10
c-13 -21 -37 -34 -46 -25 -3 3 0 5 8 5 10 0 10 4 -1 18 -12 15 -12 16 2 4 13
-10 19 -9 29 3 18 21 22 19 8 -5z m-424 -41 c9 8 13 7 13 -3 0 -17 -30 -14
-33 3 -2 7 0 7 3 1 3 -7 9 -8 17 -1z m221 -28 c-9 -8 -36 -10 -30 -2 2 4 11 8
20 8 8 0 13 -3 10 -6z m75 -1 c0 -5 -4 -10 -10 -10 -5 0 -10 5 -10 10 0 6 5
10 10 10 6 0 10 -4 10 -10z m-240 -25 c-7 -9 -15 -13 -19 -10 -3 3 1 10 9 15
21 14 24 12 10 -5z m36 -10 c1 -9 -4 -11 -14 -7 -10 4 -12 7 -4 10 7 2 9 9 5
15 -3 7 -2 8 2 4 5 -4 10 -14 11 -22z m79 7 c-3 -3 -11 0 -18 7 -9 10 -8 11 6
5 10 -3 15 -9 12 -12z m79 3 c3 -8 1 -15 -4 -15 -6 0 -10 7 -10 15 0 8 2 15 4
15 2 0 6 -7 10 -15z m-100 -16 c3 -3 -4 -5 -14 -6 -11 -1 -22 2 -24 6 -5 8 30
8 38 0z"/>
<path d="M2420 1800 c0 -5 9 -8 20 -7 21 1 18 10 -5 13 -8 1 -15 -2 -15 -6z"/>
<path d="M1903 1782 c-7 -4 -9 -13 -4 -21 6 -9 10 -7 14 8 3 12 4 21 4 21 -1
0 -7 -4 -14 -8z"/>
<path d="M2730 1590 c0 -5 5 -10 11 -10 5 0 7 5 4 10 -3 6 -8 10 -11 10 -2 0
-4 -4 -4 -10z"/>
<path d="M2795 1400 c-3 -5 -1 -10 4 -10 6 0 11 5 11 10 0 6 -2 10 -4 10 -3 0
-8 -4 -11 -10z"/>
<path d="M3667 1309 c7 -7 15 -10 18 -7 3 3 -2 9 -12 12 -14 6 -15 5 -6 -5z"/>
<path d="M3626 1242 c-3 -5 1 -9 9 -9 8 0 12 4 9 9 -3 4 -7 8 -9 8 -2 0 -6 -4
-9 -8z"/>
<path d="M3033 1053 c0 -12 4 -20 8 -17 4 2 9 -1 11 -8 3 -7 7 -5 11 6 4 9 3
15 -2 11 -6 -3 -14 3 -20 12 -9 16 -10 16 -8 -4z"/>
</g>
</svg>
